<?xml version="1.0" encoding="UTF-8" standalone="no"?>
<!-- Created with Inkscape (http://www.inkscape.org/) -->

<svg
   xmlns:dc="http://purl.org/dc/elements/1.1/"
   xmlns:cc="http://creativecommons.org/ns#"
   xmlns:rdf="http://www.w3.org/1999/02/22-rdf-syntax-ns#"
   xmlns:svg="http://www.w3.org/2000/svg"
   xmlns="http://www.w3.org/2000/svg"
   xmlns:sodipodi="http://sodipodi.sourceforge.net/DTD/sodipodi-0.dtd"
   xmlns:inkscape="http://www.inkscape.org/namespaces/inkscape"
   width="168.49338mm"
   height="126.37005mm"
   viewBox="0 0 168.49338 126.37005"
   version="1.1"
   id="svg8"
   inkscape:version="0.92.3 (2405546, 2018-03-11)"
   sodipodi:docname="nuevo_log_card___.svg">
  <defs
     id="defs2" />
  <sodipodi:namedview
     id="base"
     pagecolor="#ffffff"
     bordercolor="#666666"
     borderopacity="1.0"
     inkscape:pageopacity="0.0"
     inkscape:pageshadow="2"
     inkscape:zoom="0.9899495"
     inkscape:cx="558.23404"
     inkscape:cy="104.52409"
     inkscape:document-units="mm"
     inkscape:current-layer="layer1"
     showgrid="false"
     inkscape:window-width="1920"
     inkscape:window-height="1026"
     inkscape:window-x="0"
     inkscape:window-y="0"
     inkscape:window-maximized="1"
     fit-margin-top="0"
     fit-margin-left="0"
     fit-margin-right="0"
     fit-margin-bottom="0"
     showguides="true"
     inkscape:guide-bbox="true">
    <sodipodi:guide
       position="6.0476191,138.71726"
       orientation="1,0"
       id="guide974"
       inkscape:locked="false" />
    <sodipodi:guide
       position="160.2619,128.88988"
       orientation="1,0"
       id="guide976"
       inkscape:locked="false" />
    <sodipodi:guide
       position="-195.2247,63.688989"
       orientation="0,1"
       id="guide874"
       inkscape:locked="false" />
    <sodipodi:guide
       position="6.0476191,40.892238"
       orientation="0,1"
       id="guide876"
       inkscape:locked="false" />
    <sodipodi:guide
       position="-124.40141,54.239584"
       orientation="1,0"
       id="guide889"
       inkscape:locked="false" />
  </sodipodi:namedview>
  <metadata
     id="metadata5">
    <rdf:RDF>
      <cc:Work
         rdf:about="">
        <dc:format>image/svg+xml</dc:format>
        <dc:type
           rdf:resource="http://purl.org/dc/dcmitype/StillImage" />
        <dc:title></dc:title>
      </cc:Work>
    </rdf:RDF>
  </metadata>
  <g
     inkscape:label="Capa 1"
     inkscape:groupmode="layer"
     id="layer1"
     transform="translate(-27.207399,-75.232666)">
    <path
       inkscape:connector-curvature="0"
       id="path881"
       d="m 187.35672,34.33334 a 12.188379,11.152498 0 0 0 -12.18847,11.15272 12.188379,11.152498 0 0 0 12.18847,11.15233 12.188379,11.152498 0 0 0 12.18813,-11.15233 12.188379,11.152498 0 0 0 -12.18813,-11.15272 z m 0.11258,4.52723 a 5.8952791,6.7577147 0 0 1 5.89523,6.75778 5.8952791,6.7577147 0 0 1 -5.89523,6.75779 5.8952791,6.7577147 0 0 1 -5.89561,-6.75779 5.8952791,6.7577147 0 0 1 5.89561,-6.75778 z"
       style="fill:#fa6d08;fill-opacity:1;stroke:none;stroke-width:0.8995927;stroke-miterlimit:4;stroke-dasharray:none;stroke-opacity:1" />
    <path
       style="fill:#fa6d08;fill-opacity:1;stroke:none;stroke-width:0.18712717px;stroke-linecap:butt;stroke-linejoin:miter;stroke-opacity:1"
       d="m 130.83963,47.87519 0.0167,-4.54451 -8.3873,-0.11695 0.0669,-3.80937 10.02467,0.0334 -0.0334,-4.44426 -16.48673,-0.01 0.0128,21.62968 h 15.6719 c 0,0 0.23391,-4.6782 0.0669,-4.71161 -0.16708,-0.0334 -9.94162,-0.16135 -9.94162,-0.16135 l 0.0587,-3.74421 z"
       id="path887"
       inkscape:connector-curvature="0"
       sodipodi:nodetypes="ccccccccccccc" />
    <path
       style="fill:#fa6d08;fill-opacity:1;stroke:none;stroke-width:0.18712717px;stroke-linecap:butt;stroke-linejoin:miter;stroke-opacity:1"
       d="m 75.926646,34.96014 -10.058083,21.66758 6.382421,-0.0141 2.973933,-6.54944 7.585231,0.13341 1.77113,6.41603 h 6.482568 L 83.745787,35.06033 Z m 3.23964,5.26552 2.140265,5.34372 h -4.611299 z"
       id="path893"
       inkscape:connector-curvature="0"
       sodipodi:nodetypes="ccccccccccccc" />
    <path
       style="fill:#fa6d08;fill-opacity:1;stroke:none;stroke-width:0.18742186;stroke-linecap:round;stroke-linejoin:bevel;stroke-miterlimit:4;stroke-dasharray:none;stroke-opacity:1;paint-order:normal"
       d="m 93.048962,35.47931 3.9e-4,21.18721 14.357788,-6.3e-4 c 7.38096,-2.68628 9.44993,-17.57028 -0.0753,-21.07642 z m 5.928996,4.05334 4.511152,0.0332 c 7.94807,3.50958 3.07517,11.6797 0,12.89861 h -4.778692 z"
       id="path898"
       inkscape:connector-curvature="0"
       sodipodi:nodetypes="cccccccccc" />
    <text
       xml:space="preserve"
       style="font-style:normal;font-variant:normal;font-weight:bold;font-stretch:normal;font-size:40.04772568px;line-height:1.25;font-family:sans-serif;-inkscape-font-specification:'sans-serif Bold';letter-spacing:0px;word-spacing:0px;fill:#fa6d08;fill-opacity:1;stroke:none;stroke-width:1.00119317"
       x="153.125"
       y="56.788242"
       id="text905"><tspan
         sodipodi:role="line"
         id="tspan903"
         x="153.125"
         y="56.788242"
         style="fill:#fa6d08;fill-opacity:1;stroke-width:1.00119317">c</tspan></text>
    <text
       id="text909"
       y="57.055546"
       x="44.334812"
       style="font-style:normal;font-variant:normal;font-weight:bold;font-stretch:normal;font-size:40.04772568px;line-height:1.25;font-family:sans-serif;-inkscape-font-specification:'sans-serif Bold';letter-spacing:0px;word-spacing:0px;fill:#fa6d08;fill-opacity:1;stroke:none;stroke-width:1.00119317"
       xml:space="preserve"><tspan
         style="fill:#fa6d08;fill-opacity:1;stroke-width:1.00119317"
         y="57.055546"
         x="44.334812"
         id="tspan907"
         sodipodi:role="line">c</tspan></text>
    <path
       style="fill:#fa6d08;fill-opacity:1;stroke:none;stroke-width:0.18712717px;stroke-linecap:butt;stroke-linejoin:miter;stroke-opacity:1"
       d="m 135.39047,56.336 0.004,-21.65768 13.84918,-10e-6 c 7.1166,2.86523 4.62831,10.16032 -0.13661,12.26145 l 3.82778,9.35683 -6.52953,0.0254 -3.3553,-11.69605 c 3.48334,1.62638 8.61521,-5.62087 -0.0651,-5.42075 l -1.88618,0.0249 -0.36422,17.09197 z"
       id="path911"
       inkscape:connector-curvature="0"
       sodipodi:nodetypes="ccccccccccc" />
    <g
       id="g1710">
      <rect
         y="99.880974"
         x="99.83564"
         height="4.3919725"
         width="8.2976923"
         id="rect845"
         style="fill:#f3a006;fill-opacity:0;stroke-width:0.24844748" />
      <rect
         y="99.875717"
         x="100.23209"
         height="5.6903362"
         width="8.6607132"
         id="rect847"
         style="fill:#008500;fill-opacity:1;stroke:none;stroke-width:0.01939167;stroke-opacity:1" />
      <path
         inkscape:connector-curvature="0"
         id="path849"
         d="M 108.41569,101.07307 V 82.469934"
         style="fill:none;stroke:#008500;stroke-width:0.90614861;stroke-linecap:butt;stroke-linejoin:miter;stroke-miterlimit:4;stroke-dasharray:none;stroke-opacity:1" />
      <path
         inkscape:connector-curvature="0"
         id="path851"
         d="m 110.48326,99.461411 h 7.83053 v 7.963629 h -7.87489 15.37268 v 3.66016 h 19.12159 v 9.38334 h -34.42773 51.41976 v 8.74002"
         style="fill:none;stroke:#008500;stroke-width:0.90614861;stroke-linecap:butt;stroke-linejoin:miter;stroke-miterlimit:4;stroke-dasharray:none;stroke-opacity:1" />
      <path
         inkscape:connector-curvature="0"
         id="path853"
         d="m 110.7999,123.03294 65.81685,7.65458 -0.49455,3.31253"
         style="fill:none;stroke:#008500;stroke-width:0.90614861;stroke-linecap:butt;stroke-linejoin:miter;stroke-miterlimit:4;stroke-dasharray:none;stroke-opacity:1" />
      <path
         inkscape:connector-curvature="0"
         id="path857"
         d="M 125.81158,111.0852 H 110.48619"
         style="fill:none;stroke:#008500;stroke-width:0.90614861;stroke-linecap:butt;stroke-linejoin:miter;stroke-miterlimit:4;stroke-dasharray:none;stroke-opacity:1" />
      <path
         inkscape:connector-curvature="0"
         id="path878"
         d="M 148.48242,120.42417 V 99.794151"
         style="fill:none;stroke:#008500;stroke-width:0.90614861;stroke-linecap:butt;stroke-linejoin:miter;stroke-miterlimit:4;stroke-dasharray:none;stroke-opacity:1" />
      <path
         inkscape:connector-curvature="0"
         id="path880"
         d="m 148.52679,113.85805 8.96209,-15.522798"
         style="fill:none;stroke:#008500;stroke-width:0.90614861;stroke-linecap:butt;stroke-linejoin:miter;stroke-miterlimit:4;stroke-dasharray:none;stroke-opacity:1" />
      <rect
         y="108.83746"
         x="111.70181"
         height="2.1489296"
         width="1.5685617"
         id="rect886"
         style="fill:#008500;fill-opacity:1;stroke:none;stroke-width:0.24844748;stroke-opacity:1" />
      <rect
         style="fill:#008500;fill-opacity:1;stroke:none;stroke-width:0.24844748;stroke-opacity:1"
         id="rect888"
         width="1.5685617"
         height="2.1489296"
         x="117.16766"
         y="108.83746" />
      <rect
         y="108.83746"
         x="121.63971"
         height="2.1489296"
         width="1.5685617"
         id="rect890"
         style="fill:#008500;fill-opacity:1;stroke:none;stroke-width:0.24844748;stroke-opacity:1" />
      <rect
         y="114.798"
         x="111.75671"
         height="1.5999329"
         width="1.0979931"
         id="rect892"
         style="fill:#008500;fill-opacity:1;stroke:none;stroke-width:0.24844748;stroke-opacity:1" />
      <rect
         style="fill:#008500;fill-opacity:1;stroke:none;stroke-width:0.24844748;stroke-opacity:1"
         id="rect896"
         width="1.0979931"
         height="1.5999329"
         x="117.71944"
         y="114.798" />
      <rect
         y="114.798"
         x="122.19147"
         height="1.5999329"
         width="1.0979931"
         id="rect898"
         style="fill:#008500;fill-opacity:1;stroke:none;stroke-width:0.24844748;stroke-opacity:1" />
      <rect
         style="fill:#008500;fill-opacity:1;stroke:none;stroke-width:0.24844748;stroke-opacity:1"
         id="rect900"
         width="1.0979931"
         height="1.5999329"
         x="127.65729"
         y="114.798" />
      <rect
         transform="rotate(90)"
         y="-135.96268"
         x="116.04274"
         height="1.5999329"
         width="1.0979931"
         id="rect902"
         style="fill:#008500;fill-opacity:1;stroke:none;stroke-width:0.24844748;stroke-opacity:1" />
      <rect
         style="fill:#008500;fill-opacity:1;stroke:none;stroke-width:0.24844748;stroke-opacity:1"
         id="rect904"
         width="1.0979931"
         height="1.5999329"
         x="114.84486"
         y="-140.46579"
         transform="rotate(90)" />
      <rect
         y="122.29819"
         x="138.88789"
         height="1.7089801"
         width="1.4427862"
         id="rect906"
         style="fill:#008500;fill-opacity:1;stroke:none;stroke-width:0.22536105;stroke-opacity:1" />
      <rect
         style="fill:#008500;fill-opacity:1;stroke:none;stroke-width:0.22536105;stroke-opacity:1"
         id="rect908"
         width="1.4427862"
         height="1.7089801"
         x="144.85056"
         y="122.29819" />
      <rect
         y="122.29819"
         x="150.81322"
         height="1.7089801"
         width="1.4427862"
         id="rect910"
         style="fill:#008500;fill-opacity:1;stroke:none;stroke-width:0.22536105;stroke-opacity:1" />
      <rect
         transform="rotate(90)"
         style="fill:#008500;fill-opacity:1;stroke:none;stroke-width:0.22536105;stroke-opacity:1"
         id="rect912"
         width="1.4427862"
         height="1.7089801"
         x="122.43127"
         y="-157.85486" />
      <rect
         style="fill:#008200;fill-opacity:1;stroke:none;stroke-width:0.01829141;stroke-opacity:1"
         id="rect914"
         width="16.75503"
         height="2.617038"
         x="92.137772"
         y="107.40428" />
      <rect
         y="112.18758"
         x="74.491554"
         height="6.587316"
         width="34.389938"
         id="rect918"
         style="fill:#008500;fill-opacity:1;stroke:none;stroke-width:0.04157571;stroke-opacity:1" />
      <path
         style="fill:none;stroke:#008500;stroke-width:0.90614861;stroke-linecap:butt;stroke-linejoin:miter;stroke-miterlimit:4;stroke-dasharray:none;stroke-opacity:1"
         d="M 69.938853,120.95656 V 100.32654"
         id="path920"
         inkscape:connector-curvature="0" />
      <path
         style="fill:none;stroke:#008500;stroke-width:0.90614861;stroke-linecap:butt;stroke-linejoin:miter;stroke-miterlimit:4;stroke-dasharray:none;stroke-opacity:1"
         d="M 69.894485,114.39045 60.932393,98.867641"
         id="path922"
         inkscape:connector-curvature="0" />
      <path
         inkscape:connector-curvature="0"
         id="path924"
         d="m 57.845251,120.83695 v 5.8978 l 47.809759,-5.33312 z"
         style="fill:#008500;fill-opacity:1;stroke:none;stroke-width:0.24844748px;stroke-linecap:butt;stroke-linejoin:miter;stroke-opacity:1" />
      <path
         inkscape:connector-curvature="0"
         id="path926"
         d="m 39.964096,129.82968 1.597162,4.5253 H 108.8928 v -10.2041 z"
         style="fill:#008500;fill-opacity:1;stroke:none;stroke-width:0.24844748px;stroke-linecap:butt;stroke-linejoin:miter;stroke-opacity:1" />
      <circle
         r="1.5971624"
         cy="131.11629"
         cx="101.05556"
         id="path932"
         style="fill:#ffffff;fill-opacity:1;stroke:none;stroke-width:0.24844748;stroke-opacity:1" />
      <circle
         style="fill:#008500;fill-opacity:1;stroke:none;stroke-width:0.24844748;stroke-opacity:1"
         id="circle934"
         cx="117.82576"
         cy="131.24939"
         r="1.5971624" />
      <path
         sodipodi:nodetypes="ccccc"
         inkscape:connector-curvature="0"
         id="path936"
         d="m 58.284449,172.66222 -6.023278,-11.48186 56.631629,-0.12549 v 8.31337 c -25.228758,17.59595 -30.942307,-9.04127 -50.608351,3.29398 z"
         style="fill:#008500;fill-opacity:1;stroke:none;stroke-width:0.24844748px;stroke-linecap:butt;stroke-linejoin:miter;stroke-opacity:1" />
      <path
         inkscape:connector-curvature="0"
         id="path940"
         d="m 112.21161,168.56829 v -7.24676"
         style="fill:none;stroke:#008500;stroke-width:0.90614861;stroke-linecap:butt;stroke-linejoin:miter;stroke-miterlimit:4;stroke-dasharray:none;stroke-opacity:1" />
      <path
         inkscape:connector-curvature="0"
         id="path942"
         d="m 164.47622,171.68865 c 0,-0.0887 4.76931,-10.42592 4.76931,-10.42592"
         style="fill:none;stroke:#008500;stroke-width:0.90614861;stroke-linecap:butt;stroke-linejoin:miter;stroke-miterlimit:4;stroke-dasharray:none;stroke-opacity:1" />
      <path
         sodipodi:nodetypes="cccccccc"
         inkscape:connector-curvature="0"
         id="path917"
         d="m 39.649925,172.06405 c 5.079058,2.91201 9.918312,4.1059 16.778649,2.3058 12.84682,-8.06461 19.738127,-2.85316 27.367369,0.47505 6.643147,1.19151 13.286275,2.31431 19.929397,-1.8539 5.06311,-4.16933 10.77327,-3.39328 16.91684,0.6952 7.04171,3.11171 14.32688,3.82361 22.13094,-0.57933 5.26671,-4.15757 11.45139,-4.76849 19.11836,0.3476 8.23252,3.40467 11.19651,1.5408 15.17881,0.69522"
         style="fill:none;stroke:#008500;stroke-width:2.05058718;stroke-linecap:round;stroke-linejoin:bevel;stroke-miterlimit:4;stroke-dasharray:none;stroke-opacity:1" />
      <path
         style="fill:none;stroke:#008500;stroke-width:2.05058718;stroke-linecap:round;stroke-linejoin:bevel;stroke-miterlimit:4;stroke-dasharray:none;stroke-opacity:1"
         d="m 39.649925,176.65224 c 5.079058,2.91201 9.918312,4.1059 16.778649,2.30581 12.84682,-8.06461 19.738127,-2.85317 27.367369,0.47505 6.643147,1.19151 13.286275,2.3143 19.929397,-1.85391 5.06311,-4.16933 10.77327,-3.39328 16.91684,0.69522 7.04171,3.11169 14.32688,3.82359 22.13094,-0.57935 5.26671,-4.15757 11.45139,-4.76849 19.11836,0.34761 8.23252,3.40467 11.19651,1.54079 15.17881,0.69521"
         id="path919"
         inkscape:connector-curvature="0"
         sodipodi:nodetypes="cccccccc" />
      <path
         sodipodi:nodetypes="cccccccc"
         inkscape:connector-curvature="0"
         id="path921"
         d="m 39.649925,181.24044 c 5.079058,2.91201 9.918312,4.10591 16.778649,2.3058 12.84682,-8.06459 19.738127,-2.85315 27.367369,0.47506 6.643147,1.1915 13.286275,2.3143 19.929397,-1.8539 5.06311,-4.16933 10.77327,-3.39328 16.91684,0.69521 7.04171,3.11169 14.32688,3.8236 22.13094,-0.57935 5.26671,-4.15757 11.45139,-4.76848 19.11836,0.34761 8.23252,3.40467 11.19651,1.5408 15.17881,0.69522"
         style="fill:none;stroke:#008500;stroke-width:2.05058718;stroke-linecap:round;stroke-linejoin:bevel;stroke-miterlimit:4;stroke-dasharray:none;stroke-opacity:1" />
      <path
         style="fill:none;stroke:#008500;stroke-width:2.05058718;stroke-linecap:round;stroke-linejoin:bevel;stroke-miterlimit:4;stroke-dasharray:none;stroke-opacity:1"
         d="m 39.649925,186.28746 c 5.079058,2.91201 9.918312,4.1059 16.778649,2.30581 12.84682,-8.06461 19.738127,-2.85317 27.367369,0.47505 6.643147,1.19151 13.286275,2.3143 19.929397,-1.85391 5.06311,-4.16933 10.77327,-3.39327 16.91684,0.69522 7.04171,3.11169 14.32688,3.82359 22.13094,-0.57935 5.26671,-4.15757 11.45139,-4.76849 19.11836,0.34762 8.23252,3.40465 11.19651,1.54078 15.17881,0.6952"
         id="path923"
         inkscape:connector-curvature="0"
         sodipodi:nodetypes="cccccccc" />
      <g
         style="fill:#fa6d08;fill-opacity:1"
         transform="matrix(0.3483927,0,0,0.40702117,34.961914,129.3552)"
         id="g1646">
        <g
           style="fill:#fa6d08;fill-opacity:1"
           id="#fcfcfcff" />
        <g
           style="fill:#fa6d08;fill-opacity:1"
           id="#000000ff">
          <path
             style="opacity:1;fill:#fa6d08;fill-opacity:1"
             inkscape:connector-curvature="0"
             d="m 10.94,26.93 c 5.26,-6.15 13.12,-9.52 21.01,-10.59 7.29,-1.06 14.64,0.06 21.86,1.09 0.25,4.37 0.48,8.74 0.66,13.11 -8.06,-1.82 -17.31,-3.59 -24.71,1.23 -9.24,5.41 -11.1,21.02 -1.62,27.09 7.7,4.78 17.12,2.32 25.35,0.51 -0.64,4.46 -1.41,8.89 -2.1,13.34 C 40.55,74.28 28.84,75.4 18.65,70.48 12.46,67.62 7.16,62.41 5.29,55.72 2.53,46 4.22,34.69 10.94,26.93 Z"
             id="path1614" />
          <path
             style="opacity:1;fill:#fa6d08;fill-opacity:1"
             inkscape:connector-curvature="0"
             d="m 319.31,23.32 c 11.01,-8.75 26.16,-8.36 39.26,-5.73 -0.03,4.3 0.16,8.59 0.16,12.89 C 350.65,28.61 341.31,27 334,32 c -8.63,5.43 -10.61,19.72 -2.19,26.2 7.59,5.58 17.55,3.11 25.98,1.23 -0.07,4.48 -1.14,8.84 -1.75,13.25 -10.08,1.47 -20.77,2.57 -30.5,-1.19 -6.32,-2.42 -12.08,-7 -14.71,-13.37 -4.83,-11.78 -1.63,-26.77 8.48,-34.8 z"
             id="path1616" />
          <path
             style="opacity:1;fill:#fa6d08;fill-opacity:1"
             inkscape:connector-curvature="0"
             d="m 389.46,16.7 c 9.42,-1.62 19.65,-0.99 28.13,3.76 6.36,3.55 10.96,9.89 12.52,16.99 1.47,8.63 0.2,18.18 -5.5,25.12 -5.41,6.87 -14.05,10.39 -22.57,11.24 -8.64,0.78 -17.78,-0.06 -25.44,-4.4 -5.58,-3.22 -10.36,-8.33 -11.97,-14.68 -2.2,-8.46 -1.27,-18.04 3.76,-25.36 4.72,-7.08 12.87,-11.17 21.07,-12.67 m 4.97,11.93 c -12.55,2.09 -17.48,19.85 -8.62,28.56 5.3,5.39 14.65,5.73 20.62,1.24 6.55,-5.11 8.01,-15.01 4.62,-22.3 -2.82,-6.15 -10.24,-8.93 -16.62,-7.5 z"
             id="path1618" />
          <path
             style="opacity:1;fill:#fa6d08;fill-opacity:1"
             inkscape:connector-curvature="0"
             d="m 85.18,17.03 c 7.14,0.01 14.28,-0.1 21.41,0.07 6.32,18.79 13.41,37.32 20.42,55.86 -6.26,-0.01 -12.51,0.05 -18.76,-0.03 -1.46,-5.34 -3.29,-10.57 -5.16,-15.78 -6.9,-0.02 -13.8,-0.08 -20.7,0.04 C 79.88,62.43 77.44,67.7 75.07,73.01 68.62,72.94 62.17,72.96 55.73,72.99 65.93,54.55 76,36.01 85.18,17.03 m 2.34,28.11 c 4.18,0.1 8.36,0.08 12.54,0.02 C 98.5,39.92 96.82,34.7 94.99,29.55 92.4,34.7 90.03,39.95 87.52,45.14 Z"
             id="path1620" />
          <path
             style="opacity:1;fill:#fa6d08;fill-opacity:1"
             inkscape:connector-curvature="0"
             d="m 133.68,17.03 c 11.79,0.49 23.61,-0.94 35.37,0.2 6.97,0.57 13.72,4.47 16.9,10.83 5.18,10.11 4.27,22.81 -1.32,32.57 -3.71,6.44 -10.48,10.89 -17.88,11.71 -11.81,1.34 -23.73,0.15 -35.58,0.64 1.53,-18.61 2.61,-37.27 2.51,-55.95 m 16.69,11.99 c -1,10.51 -0.79,21.1 -1.65,31.63 5.71,0.16 12.14,0.66 17,-2.95 4.53,-3.76 5.96,-10.07 5.8,-15.72 -0.09,-4.41 -1.73,-9.39 -5.89,-11.55 -4.71,-2.39 -10.19,-1.49 -15.26,-1.41 z"
             id="path1622" />
          <path
             style="opacity:1;fill:#fa6d08;fill-opacity:1"
             inkscape:connector-curvature="0"
             d="m 198.71,17 c 15.27,0.12 30.54,-0.16 45.8,0.14 -0.09,4.08 -0.6,8.13 -0.94,12.19 -9.25,-0.45 -18.54,-0.64 -27.78,0.02 0.03,3.07 -0.03,6.15 -0.12,9.22 7.7,0.28 15.4,0.02 23.1,-0.16 -0.04,4.16 -0.19,8.31 -0.48,12.46 -7.86,0.06 -15.71,0.05 -23.57,0.24 -0.06,3.3 -0.2,6.61 -0.34,9.91 9.15,0.29 18.31,-0.17 27.46,-0.51 -0.01,4.17 -0.1,8.33 -0.22,12.5 -15.2,-0.07 -30.4,-0.06 -45.6,0 1.26,-18.65 2.91,-37.29 2.69,-56.01 z"
             id="path1624" />
          <path
             style="opacity:1;fill:#fa6d08;fill-opacity:1"
             inkscape:connector-curvature="0"
             d="m 253.46,17.03 c 9.51,0.29 19.02,-0.34 28.54,-0.26 6.01,0.11 12.66,0.68 17.39,4.84 5.58,5.51 5.17,15.2 0.12,20.92 -2.38,2.89 -5.97,4.22 -9.26,5.77 3.52,8.23 7.3,16.34 10.79,24.58 -6.28,0.1 -12.57,0.23 -18.85,-0.06 -2.6,-10.63 -7.12,-20.64 -10.29,-31.1 4.57,0.49 10.21,0.55 13.26,-3.55 2.3,-2.63 1.61,-7.32 -1.88,-8.56 -4.18,-1.38 -8.71,-1.06 -13.05,-0.86 -1.39,3.04 -0.4,6.89 -0.86,10.25 -1.07,11.26 -0.71,22.6 -1.02,33.9 -5.88,0.13 -11.76,0.05 -17.64,0.06 1.27,-10.61 2,-21.29 2.08,-31.98 0.87,-7.95 0.54,-15.97 0.67,-23.95 z"
             id="path1626" />
        </g>
      </g>
    </g>
    <flowRoot
       xml:space="preserve"
       id="flowRoot1656"
       style="font-style:normal;font-variant:normal;font-weight:bold;font-stretch:normal;font-size:40px;line-height:1.25;font-family:sans-serif;-inkscape-font-specification:'sans-serif Bold';letter-spacing:0px;word-spacing:0px;fill:#000000;fill-opacity:1;stroke:none"
       transform="matrix(0.26458333,0,0,0.26458333,27.207399,75.232666)"><flowRegion
         id="flowRegion1658"><rect
           id="rect1660"
           width="666.70068"
           height="245.46707"
           x="722.25909"
           y="350.33987" /></flowRegion><flowPara
         id="flowPara1662"></flowPara></flowRoot>  </g>
</svg>
