<svg xmlns="http://www.w3.org/2000/svg" width="636.825" height="477.619" viewBox="0 0 168.493 126.37"><path d="M160.15-40.9a12.188 11.152 0 0 0-12.19 11.153 12.188 11.152 0 0 0 12.19 11.153 12.188 11.152 0 0 0 12.187-11.153 12.188 11.152 0 0 0-12.188-11.152zm.112 4.528a5.895 6.758 0 0 1 5.895 6.758 5.895 6.758 0 0 1-5.895 6.757 5.895 6.758 0 0 1-5.896-6.757 5.895 6.758 0 0 1 5.896-6.758zm-56.63 9.015l.017-4.545-8.387-.117.067-3.81 10.024.034-.033-4.444-16.487-.01.013 21.63h15.672s.234-4.679.067-4.712c-.167-.033-9.942-.161-9.942-.161l.059-3.745zM48.72-40.273L38.66-18.605l6.383-.014 2.974-6.55 7.585.134 1.77 6.416h6.483l-7.318-21.553zm3.239 5.266l2.14 5.344h-4.611zm13.883-4.746v21.187H80.2c7.38-2.687 9.45-17.571-.076-21.077zM71.77-35.7l4.51.033c7.949 3.51 3.076 11.68 0 12.899h-4.778z" fill="#fa6d08"/><text style="line-height:1.25;-inkscape-font-specification:'sans-serif Bold'" x="153.125" y="56.788" font-weight="700" font-size="40.048" font-family="sans-serif" letter-spacing="0" word-spacing="0" fill="#fa6d08" stroke-width="1.001" transform="translate(-27.207 -75.233)"><tspan x="153.125" y="56.788">c</tspan></text><text y="57.056" x="44.335" style="line-height:1.25;-inkscape-font-specification:'sans-serif Bold'" font-weight="700" font-size="40.048" font-family="sans-serif" letter-spacing="0" word-spacing="0" fill="#fa6d08" stroke-width="1.001" transform="translate(-27.207 -75.233)"><tspan y="57.056" x="44.335">c</tspan></text><path d="M108.183-18.897l.004-21.657h13.85c7.116 2.865 4.628 10.16-.137 12.261l3.827 9.357-6.53.025-3.354-11.696c3.483 1.627 8.615-5.62-.066-5.42l-1.886.024-.364 17.092z" fill="#fa6d08"/><g transform="translate(-27.207 -75.233)"><path fill="none" d="M99.836 99.881h8.298v4.392h-8.298z"/><path fill="#008500" d="M100.232 99.876h8.661v5.69h-8.661z"/><path d="M108.416 101.073V82.47m2.067 16.991h7.83v7.964h-7.874 15.373v3.66h19.121v9.384h-34.428 51.42v8.74" fill="none" stroke="#008500" stroke-width=".906"/><path d="M110.8 123.033l65.817 7.655-.495 3.312m-50.31-22.915h-15.326m37.996 9.339v-20.63m.045 14.064l8.962-15.523" fill="none" stroke="#008500" stroke-width=".906"/><path fill="#008500" d="M111.702 108.837h1.569v2.149h-1.569zm5.466 0h1.569v2.149h-1.569zm4.472 0h1.569v2.149h-1.569zm-9.883 5.961h1.098v1.6h-1.098zm5.962 0h1.098v1.6h-1.098zm4.472 0h1.098v1.6h-1.098zm5.466 0h1.098v1.6h-1.098zm8.306 1.245v1.098h-1.6v-1.098zm4.503-1.198v1.098h-1.6v-1.098zm-1.578 7.453h1.443v1.709h-1.443zm5.963 0h1.443v1.709h-1.443zm5.962 0h1.443v1.709h-1.443zm7.042.133v1.443h-1.709v-1.443z"/><path fill="#008200" d="M92.138 107.404h16.755v2.617H92.138z"/><path fill="#008500" d="M74.492 112.188h34.39v6.587h-34.39z"/><path d="M69.939 120.957v-20.63m-.045 14.063l-8.962-15.522" fill="none" stroke="#008500" stroke-width=".906"/><path d="M57.845 120.837v5.898l47.81-5.333zm-17.881 8.993l1.597 4.525h67.332v-10.204z" fill="#008500"/><circle r="1.597" cy="131.116" cx="101.056" fill="#fff"/><circle cx="117.826" cy="131.249" r="1.597" fill="#008500"/><path d="M58.284 172.662l-6.023-11.482 56.632-.125v8.313c-25.229 17.596-30.943-9.041-50.609 3.294z" fill="#008500"/><path d="M112.212 168.568v-7.246m52.264 10.367c0-.089 4.77-10.426 4.77-10.426" fill="none" stroke="#008500" stroke-width=".906"/><path d="M39.65 172.064c5.079 2.912 9.918 4.106 16.779 2.306 12.846-8.065 19.738-2.853 27.367.475 6.643 1.191 13.286 2.314 19.93-1.854 5.062-4.17 10.773-3.393 16.916.695 7.042 3.112 14.327 3.824 22.131-.58 5.267-4.157 11.452-4.768 19.118.348 8.233 3.405 11.197 1.541 15.18.696" fill="none" stroke="#008500" stroke-width="2.051" stroke-linecap="round" stroke-linejoin="bevel"/><path d="M39.65 176.652c5.079 2.912 9.918 4.106 16.779 2.306 12.846-8.065 19.738-2.853 27.367.475 6.643 1.192 13.286 2.314 19.93-1.854 5.062-4.17 10.773-3.393 16.916.695 7.042 3.112 14.327 3.824 22.131-.579 5.267-4.158 11.452-4.768 19.118.348 8.233 3.404 11.197 1.54 15.18.695" fill="none" stroke="#008500" stroke-width="2.051" stroke-linecap="round" stroke-linejoin="bevel"/><path d="M39.65 181.24c5.079 2.912 9.918 4.106 16.779 2.306 12.846-8.064 19.738-2.853 27.367.475 6.643 1.192 13.286 2.315 19.93-1.854 5.062-4.169 10.773-3.393 16.916.696 7.042 3.111 14.327 3.823 22.131-.58 5.267-4.157 11.452-4.768 19.118.348 8.233 3.405 11.197 1.54 15.18.695" fill="none" stroke="#008500" stroke-width="2.051" stroke-linecap="round" stroke-linejoin="bevel"/><path d="M39.65 186.287c5.079 2.912 9.918 4.106 16.779 2.306 12.846-8.064 19.738-2.853 27.367.475 6.643 1.192 13.286 2.315 19.93-1.854 5.062-4.169 10.773-3.393 16.916.696 7.042 3.111 14.327 3.823 22.131-.58 5.267-4.157 11.452-4.768 19.118.348 8.233 3.405 11.197 1.54 15.18.695" fill="none" stroke="#008500" stroke-width="2.051" stroke-linecap="round" stroke-linejoin="bevel"/><path d="M38.773 140.316c1.833-2.503 4.571-3.875 7.32-4.31 2.54-.432 5.1.024 7.616.444.087 1.778.167 3.557.23 5.336-2.808-.741-6.03-1.462-8.609.5-3.22 2.202-3.867 8.556-.564 11.026 2.682 1.946 5.964.945 8.831.208-.223 1.815-.49 3.618-.731 5.43-3.777.639-7.856 1.095-11.407-.908-2.156-1.164-4.003-3.285-4.654-6.008-.962-3.956-.373-8.56 1.968-11.718zm107.434-1.469c3.836-3.562 9.114-3.403 13.678-2.332-.01 1.75.056 3.496.056 5.246-2.815-.76-6.07-1.416-8.616.619-3.007 2.21-3.696 8.026-.763 10.664 2.644 2.271 6.114 1.266 9.051.5-.024 1.824-.397 3.599-.61 5.393-3.511.599-7.235 1.047-10.625-.484-2.202-.985-4.209-2.849-5.125-5.442-1.683-4.794-.568-10.896 2.954-14.164zm24.44-2.695c3.282-.659 6.846-.402 9.8 1.53 2.216 1.446 3.819 4.026 4.362 6.916.512 3.513.07 7.4-1.916 10.225-1.885 2.796-4.895 4.228-7.863 4.574-3.01.318-6.195-.024-8.863-1.79-1.944-1.311-3.61-3.39-4.17-5.976-.767-3.443-.443-7.342 1.31-10.322 1.644-2.881 4.483-4.546 7.34-5.157m1.731 4.856c-4.372.85-6.09 8.08-3.003 11.625 1.847 2.194 5.104 2.332 7.184.504 2.282-2.08 2.79-6.109 1.61-9.076-.983-2.503-3.568-3.635-5.79-3.053zm-107.74-4.721c2.488.004 4.975-.04 7.46.028 2.2 7.648 4.671 15.19 7.113 22.736-2.18-.004-4.358.02-6.536-.012-.508-2.173-1.146-4.302-1.797-6.423-2.404-.008-4.808-.032-7.212.017a286.34 286.34 0 0 0-2.55 6.439 371.85 371.85 0 0 0-6.738-.008c3.553-7.506 7.062-15.052 10.26-22.777m.815 11.441c1.457.04 2.913.033 4.37.008a144.343 144.343 0 0 0-1.767-6.353c-.903 2.096-1.728 4.233-2.603 6.345zm16.082-11.441c4.108.2 8.226-.383 12.323.081 2.428.232 4.78 1.82 5.888 4.408 1.804 4.115 1.487 9.284-.46 13.257-1.293 2.621-3.651 4.432-6.23 4.766-4.114.546-8.267.061-12.395.26.533-7.574.909-15.17.874-22.772m5.815 4.88c-.349 4.278-.276 8.588-.575 12.874 1.99.065 4.23.269 5.923-1.2 1.578-1.531 2.076-4.1 2.02-6.4-.031-1.794-.602-3.821-2.052-4.7-1.64-.973-3.55-.607-5.316-.574zm16.841-4.892c5.32.048 10.64-.066 15.956.057-.03 1.66-.209 3.309-.327 4.961-3.223-.183-6.46-.26-9.678.008.01 1.25-.01 2.503-.042 3.753 2.682.114 5.365.008 8.048-.065a98.458 98.458 0 0 1-.168 5.071c-2.738.025-5.473.02-8.211.098a194.19 194.19 0 0 1-.119 4.034c3.188.118 6.38-.07 9.567-.208-.003 1.697-.035 3.39-.076 5.088a1589.97 1589.97 0 0 0-15.887 0c.439-7.591 1.014-15.178.937-22.797zm19.075.012c3.313.118 6.626-.139 9.943-.106 2.093.045 4.41.277 6.058 1.97 1.944 2.243 1.801 6.187.042 8.515-.83 1.176-2.08 1.717-3.226 2.348 1.226 3.35 2.543 6.651 3.76 10.005-2.189.04-4.38.094-6.568-.025-.906-4.326-2.48-8.4-3.585-12.658 1.592.2 3.557.224 4.62-1.445.8-1.07.56-2.98-.655-3.484-1.457-.562-3.035-.431-4.547-.35-.484 1.237-.14 2.804-.3 4.172-.372 4.583-.247 9.199-.355 13.798-2.048.053-4.097.02-6.146.024.443-4.318.697-8.665.725-13.016.303-3.236.188-6.5.234-9.748z" fill="#fa6d08"/></g></svg>